<svg width="25" height="24" viewBox="0 0 25 24" fill="none" xmlns="http://www.w3.org/2000/svg">
<path d="M13.7686 3.66881C14.0686 3.36885 14.4755 3.20035 14.8998 3.20035C15.3241 3.20035 15.731 3.36885 16.031 3.66881L23.231 10.8688C23.531 11.1689 23.6995 11.5757 23.6995 12C23.6995 12.4243 23.531 12.8312 23.231 13.1312L16.031 20.3312C15.7292 20.6227 15.3251 20.7839 14.9056 20.7803C14.486 20.7766 14.0847 20.6084 13.7881 20.3117C13.4914 20.0151 13.3232 19.6138 13.3195 19.1942C13.3159 18.7747 13.4772 18.3706 13.7686 18.0688L18.0998 13.6H2.8998C2.47546 13.6 2.06849 13.4314 1.76843 13.1314C1.46838 12.8313 1.2998 12.4244 1.2998 12C1.2998 11.5757 1.46838 11.1687 1.76843 10.8686C2.06849 10.5686 2.47546 10.4 2.8998 10.4H18.0998L13.7686 5.93121C13.4687 5.63116 13.3001 5.22427 13.3001 4.80001C13.3001 4.37574 13.4687 3.96885 13.7686 3.66881Z" fill="white"/>
</svg>
