<svg width="60" height="60" viewBox="0 0 60 60" fill="none" xmlns="http://www.w3.org/2000/svg">
<rect width="60" height="60" rx="30" fill="#2D5BFF"/>
<path d="M28.7304 38.3215C28.4304 38.6214 28.0235 38.7899 27.5992 38.7899C27.175 38.7899 26.7681 38.6214 26.468 38.3215L19.268 31.1215C18.9681 30.8214 18.7996 30.4145 18.7996 29.9903C18.7996 29.566 18.9681 29.1591 19.268 28.8591L26.468 21.6591C26.7698 21.3676 27.1739 21.2063 27.5935 21.21C28.013 21.2136 28.4143 21.3819 28.7109 21.6785C29.0076 21.9752 29.1759 22.3765 29.1795 22.796C29.1831 23.2155 29.0219 23.6197 28.7304 23.9215L24.3992 28.3903H39.5992C40.0236 28.3903 40.4305 28.5588 40.7306 28.8589C41.0306 29.1589 41.1992 29.5659 41.1992 29.9903C41.1992 30.4146 41.0306 30.8216 40.7306 31.1216C40.4305 31.4217 40.0236 31.5903 39.5992 31.5903H24.3992L28.7304 36.0591C29.0304 36.3591 29.1989 36.766 29.1989 37.1903C29.1989 37.6145 29.0304 38.0214 28.7304 38.3215Z" fill="white"/>
</svg>
