<svg width="22" height="22" viewBox="0 0 22 22" fill="none" xmlns="http://www.w3.org/2000/svg">
<path fill-rule="evenodd" clip-rule="evenodd" d="M16.2491 9.49911C16.2491 10.3855 16.0745 11.2633 15.7353 12.0822C15.3961 12.9012 14.8989 13.6453 14.2721 14.2721C13.6453 14.8989 12.9012 15.3961 12.0822 15.7353C11.2633 16.0745 10.3855 16.2491 9.49911 16.2491C8.61269 16.2491 7.73495 16.0745 6.916 15.7353C6.09705 15.3961 5.35294 14.8989 4.72614 14.2721C4.09935 13.6453 3.60215 12.9012 3.26293 12.0822C2.92371 11.2633 2.74911 10.3855 2.74911 9.49911C2.74911 7.7089 3.46027 5.99201 4.72614 4.72614C5.99201 3.46027 7.7089 2.74911 9.49911 2.74911C11.2893 2.74911 13.0062 3.46027 14.2721 4.72614C15.538 5.99201 16.2491 7.7089 16.2491 9.49911ZM15.0191 16.6091C13.2107 18.0131 10.9352 18.6751 8.65581 18.4603C6.37646 18.2456 4.26463 17.1702 2.75024 15.4532C1.23585 13.7362 0.43274 11.5066 0.504416 9.21824C0.576092 6.92992 1.51716 4.75492 3.13604 3.13604C4.75492 1.51716 6.92992 0.576092 9.21824 0.504416C11.5066 0.43274 13.7362 1.23585 15.4532 2.75024C17.1702 4.26463 18.2456 6.37646 18.4603 8.65581C18.6751 10.9352 18.0131 13.2107 16.6091 15.0191L20.7941 19.2041C20.9046 19.3071 20.9933 19.4313 21.0548 19.5693C21.1163 19.7073 21.1493 19.8563 21.152 20.0073C21.1547 20.1584 21.1269 20.3084 21.0703 20.4485C21.0137 20.5886 20.9295 20.7158 20.8227 20.8227C20.7158 20.9295 20.5886 21.0137 20.4485 21.0703C20.3084 21.1269 20.1584 21.1547 20.0073 21.152C19.8563 21.1493 19.7073 21.1163 19.5693 21.0548C19.4313 20.9933 19.3071 20.9046 19.2041 20.7941L15.0191 16.6091Z" fill="black"/>
</svg>
