<svg width="98" height="98" viewBox="0 0 98 98" fill="none" xmlns="http://www.w3.org/2000/svg">
<g clip-path="url(#clip0_2838_3401)">
<rect width="98" height="98" rx="49" fill="white"/>
<path d="M49 0C21.952 0 0 21.952 0 49C0 76.048 21.952 98 49 98C76.048 98 98 76.048 98 49C98 21.952 76.048 0 49 0ZM49 19.6C58.457 19.6 66.15 27.293 66.15 36.75C66.15 46.207 58.457 53.9 49 53.9C39.543 53.9 31.85 46.207 31.85 36.75C31.85 27.293 39.543 19.6 49 19.6ZM49 88.2C39.053 88.2 27.293 84.182 18.914 74.088C27.4979 67.3565 38.0914 63.6981 49 63.6981C59.9086 63.6981 70.5021 67.3565 79.086 74.088C70.707 84.182 58.947 88.2 49 88.2Z" fill="#2D5BFF"/>
</g>
<defs>
<clipPath id="clip0_2838_3401">
<rect width="98" height="98" rx="49" fill="white"/>
</clipPath>
</defs>
</svg>
